<svg width="84" height="17" viewBox="0 0 84 17" fill="none" xmlns="http://www.w3.org/2000/svg">
<path d="M21.287 13.6195V10.1124H22.7968C25.6054 10.1124 27.2934 8.54411 27.2934 6.20028C27.2934 3.9919 25.5826 2.71021 23.1218 2.71021H19.4692V13.6195H21.287ZM23.0406 4.33263C24.4848 4.33263 25.4642 4.99843 25.4642 6.41128C25.4642 7.71008 24.3764 8.48993 22.9479 8.48993H21.287V4.33263H23.0406ZM52.5209 9.80441C52.5209 7.54755 50.8172 5.84244 48.5603 5.84244C48.0429 5.84169 47.5304 5.94288 47.0521 6.14024C46.5738 6.3376 46.1391 6.62725 45.7727 6.99266C45.4064 7.35807 45.1157 7.79207 44.9171 8.26987C44.7185 8.74767 44.616 9.25991 44.6155 9.77733V9.8372C44.6155 12.1097 46.255 13.765 48.5603 13.765C49.0732 13.7725 49.5825 13.6789 50.0592 13.4895C50.5359 13.3001 50.9705 13.0186 51.3384 12.6611C51.7062 12.3036 51.9999 11.8771 52.2028 11.406C52.4058 10.9349 52.5138 10.4285 52.5209 9.91562C52.5209 9.87712 52.5209 9.84006 52.5209 9.80299V9.80441ZM46.3363 9.80441C46.3363 8.50561 47.2943 7.46059 48.5603 7.49908C49.9589 7.54043 50.83 8.51417 50.8001 9.80441C50.7701 11.0947 49.8263 12.1097 48.5603 12.1097C47.2943 12.1097 46.3348 11.1032 46.3348 9.80441H46.3363ZM69.632 10.2649C69.6723 10.0018 69.6885 9.73548 69.6804 9.46938C69.6804 7.34226 68.058 5.84814 65.9965 5.84814C64.9671 5.83558 63.9748 6.23241 63.238 6.95133C62.5012 7.67026 62.0801 8.65242 62.0673 9.6818V9.77733C62.0673 12.0983 63.6099 13.7692 65.9466 13.7692C67.5219 13.7692 68.8364 13.0222 69.3882 11.9843L68.0409 11.2372C67.6845 11.8218 66.9217 12.2352 66.0606 12.2352C64.8588 12.2352 64.0148 11.5038 63.8365 10.2706L69.632 10.2649ZM63.9292 8.949C64.1573 7.94247 64.9044 7.32657 65.9423 7.32657C66.9802 7.32657 67.7957 7.99237 67.8912 8.949H63.9292ZM42.7165 5.98785L40.605 11.4268L38.7217 5.98785H36.7585L39.5828 13.6181L38.4137 16.297H40.2814L44.5827 5.98785H42.7165ZM84 6.02065C83.7569 5.95244 83.5054 5.91932 83.2529 5.92227C82.5059 5.92227 81.6619 6.34998 81.3055 7.07565V5.98785H79.5847V13.6181H81.3055V9.55207C81.3055 8.13921 82.2464 7.55611 83.2201 7.55611C83.4768 7.551 83.7331 7.5783 83.9829 7.63737L84 6.03063V6.02065ZM78.3172 10.2649C78.3575 10.0018 78.3738 9.73548 78.3657 9.46938C78.3657 7.34226 76.7433 5.84814 74.6817 5.84814C73.6523 5.83558 72.6601 6.23241 71.9233 6.95133C71.1864 7.67026 70.7653 8.65242 70.7525 9.6818V9.77733C70.7525 12.0983 72.2951 13.7692 74.6318 13.7692C76.2001 13.7692 77.5217 13.0222 78.0749 11.9843L76.7262 11.2372C76.3697 11.8218 75.607 12.2352 74.7459 12.2352C73.5455 12.2352 72.7 11.5038 72.5218 10.2706L78.3172 10.2649ZM72.6145 8.949C72.8426 7.94247 73.5897 7.32657 74.6276 7.32657C75.6655 7.32657 76.4809 7.99237 76.5765 8.949H72.6145ZM34.0312 9.78731C34.0389 10.0982 33.9853 10.4075 33.8734 10.6976C33.7615 10.9878 33.5935 11.253 33.379 11.4781C33.1644 11.7032 32.9076 11.8838 32.6232 12.0096C32.3389 12.1353 32.0324 12.2038 31.7216 12.211H31.6118C30.2802 12.211 29.3877 11.1716 29.3877 9.78731C29.3932 9.15459 29.646 8.54912 30.0919 8.10024C30.5379 7.65136 31.1417 7.39468 31.7743 7.38503C33.1216 7.38503 34.0312 8.42435 34.0312 9.78731ZM60.8982 9.26693C60.8982 7.13981 59.8589 5.84529 57.9114 5.84529C56.8878 5.84529 55.9468 6.2844 55.4279 6.98583V5.98785H53.6899V13.6181H55.4279V9.48363C55.4279 8.20052 56.3531 7.3893 57.4566 7.3893C58.5601 7.3893 59.1446 8.13636 59.1446 9.40237V13.6238H60.8982V9.26693ZM34.0312 5.98785V6.98583C33.5279 6.32004 32.7153 5.84529 31.4977 5.84529C29.3877 5.84529 27.6341 7.71293 27.6341 9.90421C27.6341 12.0955 29.1439 13.7678 31.1727 13.7678C32.4886 13.7678 33.478 13.2973 34.0241 12.5189V13.6224H35.7277V5.98785H34.0312Z" fill="#252526"/>
<path fill-rule="evenodd" clip-rule="evenodd" d="M7.98384 14.1143C11.3696 14.1143 14.1143 11.3696 14.1143 7.98384C14.1143 4.59808 11.3696 1.85339 7.98384 1.85339C4.59808 1.85339 1.85339 4.59808 1.85339 7.98384C1.85339 11.3696 4.59808 14.1143 7.98384 14.1143ZM7.98384 15.9677C12.3932 15.9677 15.9677 12.3932 15.9677 7.98384C15.9677 3.57448 12.3932 0 7.98384 0C3.57448 0 0 3.57448 0 7.98384C0 12.3932 3.57448 15.9677 7.98384 15.9677Z" fill="url(#paint0_angular_107_150)"/>
<defs>
<radialGradient id="paint0_angular_107_150" cx="0" cy="0" r="1" gradientUnits="userSpaceOnUse" gradientTransform="translate(7.98383 7.98383) rotate(180) scale(7.98383)">
<stop stop-color="#FF4700"/>
<stop offset="0.109375" stop-color="#FF4800"/>
<stop offset="0.192708" stop-color="#F66D00"/>
<stop offset="0.25" stop-color="#E9A600"/>
<stop offset="0.322917" stop-color="#E3D301"/>
<stop offset="0.416667" stop-color="#91DA30"/>
<stop offset="0.5" stop-color="#1DD58F"/>
<stop offset="0.598958" stop-color="#168BF0"/>
<stop offset="0.75" stop-color="#DD53C9"/>
<stop offset="0.890625" stop-color="#F9491D"/>
<stop offset="1" stop-color="#FF4700"/>
</radialGradient>
</defs>
</svg>
