<svg width="27" height="17" viewBox="0 0 27 17" fill="none" xmlns="http://www.w3.org/2000/svg">
<path d="M16.6397 1.73047H9.5564V14.4594H16.6397V1.73047Z" fill="#FF5F00"/>
<path d="M10.006 8.09524C10.0049 6.86935 10.2827 5.65928 10.8184 4.55662C11.3541 3.45396 12.1336 2.48762 13.0979 1.73077C11.9037 0.792085 10.4695 0.208335 8.95921 0.0462335C7.44892 -0.115868 5.92349 0.150223 4.55727 0.81409C3.19105 1.47796 2.03918 2.51281 1.2333 3.80038C0.427424 5.08795 6.10352e-05 6.57627 6.10352e-05 8.09524C6.10352e-05 9.61421 0.427424 11.1025 1.2333 12.3901C2.03918 13.6777 3.19105 14.7125 4.55727 15.3764C5.92349 16.0403 7.44892 16.3064 8.95921 16.1443C10.4695 15.9822 11.9037 15.3984 13.0979 14.4597C12.1336 13.7029 11.3541 12.7365 10.8184 11.6339C10.2827 10.5312 10.0049 9.32113 10.006 8.09524Z" fill="#EB001B"/>
<path d="M26.1955 8.09524C26.1955 9.61419 25.7682 11.1025 24.9624 12.3901C24.1566 13.6776 23.0047 14.7125 21.6385 15.3764C20.2724 16.0403 18.7469 16.3064 17.2367 16.1443C15.7264 15.9822 14.2922 15.3984 13.098 14.4597C14.0615 13.7021 14.8404 12.7356 15.376 11.6331C15.9116 10.5306 16.1899 9.32093 16.1899 8.09524C16.1899 6.86954 15.9116 5.65985 15.376 4.55737C14.8404 3.45488 14.0615 2.48839 13.098 1.73076C14.2922 0.792082 15.7264 0.208331 17.2367 0.0462321C18.7469 -0.115867 20.2724 0.150228 21.6385 0.814102C23.0047 1.47798 24.1566 2.51284 24.9624 3.80041C25.7682 5.08798 26.1955 6.57629 26.1955 8.09524Z" fill="#F79E1B"/>
<path d="M25.4232 13.1113V12.8507H25.5282V12.7976H25.2606V12.8507H25.3657V13.1113H25.4232ZM25.9427 13.1113V12.7971H25.8607L25.7663 13.0132L25.6719 12.7971H25.5899V13.1113H25.6478V12.8743L25.7363 13.0787H25.7963L25.8848 12.8738V13.1113H25.9427Z" fill="#F79E1B"/>
</svg>
