<svg width="49" height="16" viewBox="0 0 49 16" fill="none" xmlns="http://www.w3.org/2000/svg">
<path d="M24.2616 0.282613L20.988 15.7571H17.0283L20.3023 0.282613H24.2616ZM40.9196 10.2747L43.0035 4.46368L44.2028 10.2747H40.9196ZM45.3388 15.7571H49L45.8014 0.282613H42.4242C41.6631 0.282613 41.0215 0.728807 40.7375 1.41689L34.7964 15.7571H38.9547L39.7802 13.446H44.8593L45.3388 15.7571ZM35.0026 10.7052C35.0198 6.62122 29.4189 6.39499 29.4564 4.57019C29.4684 4.01575 29.9917 3.42512 31.1352 3.27406C31.7021 3.20028 33.2667 3.14041 35.0401 3.96667L35.7337 0.683909C34.7813 0.335516 33.5555 0 32.0302 0C28.116 0 25.3625 2.1022 25.3404 5.11488C25.3153 7.34272 27.3074 8.58489 28.8051 9.32692C30.3493 10.0853 30.8667 10.5715 30.8591 11.2492C30.8484 12.2874 29.6278 12.7472 28.4912 12.7646C26.4995 12.7959 25.3449 12.2202 24.4248 11.7866L23.706 15.179C24.6327 15.6078 26.3401 15.9809 28.108 16C32.2694 16 34.9902 13.9225 35.0026 10.7052ZM18.6039 0.282613L12.1885 15.7571H8.00368L4.8464 3.40737C4.65501 2.64793 4.48806 2.3688 3.90597 2.0479C2.95383 1.52514 1.38208 1.03613 0 0.73194L0.0936314 0.282613H6.83089C7.68905 0.282613 8.46115 0.86002 8.65771 1.85961L10.3255 10.8148L14.4442 0.282613H18.6039Z" fill="#1434CB"/>
</svg>
