<svg width="60" height="16" viewBox="0 0 60 16" fill="none" xmlns="http://www.w3.org/2000/svg">
<path d="M40.4877 0.000488281H35.8202C35.5015 0.000488281 35.2299 0.2325 35.1801 0.547763L33.2926 12.5148C33.2551 12.7509 33.438 12.9638 33.6761 12.9638H36.0713C36.2938 12.9638 36.4841 12.8014 36.5189 12.5803L37.0546 9.18814C37.1038 8.8722 37.376 8.64019 37.6947 8.64019H39.1714C42.2462 8.64019 44.0197 7.15258 44.4838 4.20467C44.6933 2.91496 44.492 1.90162 43.888 1.19194C43.2254 0.41265 42.0497 0.000488281 40.4877 0.000488281ZM41.0261 4.37118C40.7716 6.04575 39.4921 6.04575 38.2543 6.04575H37.5507L38.0454 2.91837C38.0748 2.72935 38.2372 2.59015 38.4289 2.59015H38.7517C39.5938 2.59015 40.3894 2.59015 40.8002 3.07055C41.0452 3.35715 41.1196 3.78296 41.0261 4.37118Z" fill="#179BD7"/>
<path d="M54.437 4.3176H52.2035C52.0118 4.3176 51.8487 4.4568 51.82 4.64582L51.7211 5.27089L51.5641 5.04434C51.0803 4.34216 50.0022 4.10742 48.9253 4.10742C46.4558 4.10742 44.3472 5.97784 43.9364 8.60162C43.7235 9.91044 44.0258 11.1619 44.7682 12.0347C45.4506 12.8372 46.4237 13.1716 47.5831 13.1716C49.5729 13.1716 50.6763 11.8921 50.6763 11.8921L50.5767 12.5131C50.5392 12.7505 50.7221 12.9634 50.9616 12.9634H52.9739C53.2926 12.9634 53.5642 12.7314 53.614 12.4155L54.8225 4.76661C54.8594 4.53118 54.6765 4.3176 54.437 4.3176ZM51.3219 8.66713C51.1076 9.94388 50.0929 10.801 48.8005 10.801C48.1529 10.801 47.6329 10.5928 47.2999 10.1984C46.9696 9.80672 46.8454 9.24921 46.9492 8.62823C47.1518 7.36241 48.1809 6.47735 49.4535 6.47735C50.0881 6.47735 50.604 6.68821 50.9438 7.08604C51.2857 7.48797 51.4208 8.04889 51.3219 8.66713Z" fill="#179BD7"/>
<path d="M57.0718 0.32891L55.1563 12.515C55.1188 12.7511 55.3017 12.964 55.5398 12.964H57.4655C57.7856 12.964 58.0572 12.732 58.1063 12.416L59.9951 0.449693C60.0327 0.213587 59.8498 0 59.6116 0H57.4553C57.2649 0.000682387 57.1011 0.139889 57.0718 0.32891Z" fill="#179BD7"/>
<path d="M7.19999 0.000732422H2.53314C2.21379 0.000732422 1.9422 0.232744 1.89238 0.548007L0.00489929 12.515C-0.032632 12.7511 0.150247 12.964 0.389765 12.964H2.61776C2.93711 12.964 3.20871 12.732 3.25852 12.4161L3.76758 9.18839C3.81671 8.87244 4.08898 8.64043 4.40766 8.64043H5.88503C8.95918 8.64043 10.7334 7.15283 11.1967 4.20492C11.4055 2.91521 11.2056 1.90186 10.6017 1.19218C9.93841 0.412894 8.76197 0.000732422 7.19999 0.000732422ZM7.73839 4.37142C7.48318 6.046 6.2037 6.046 4.96653 6.046H4.26231L4.75636 2.91862C4.7857 2.7296 4.94948 2.59039 5.14054 2.59039H5.46331C6.30606 2.59039 7.10104 2.59039 7.51184 3.07079C7.75681 3.35739 7.83188 3.7832 7.73839 4.37142Z" fill="#253B80"/>
<path d="M21.1502 4.3176H18.9154C18.725 4.3176 18.5605 4.4568 18.5312 4.64582L18.4322 5.27089L18.276 5.04434C17.7921 4.34216 16.7133 4.10742 15.6365 4.10742C13.1669 4.10742 11.0577 5.97784 10.6469 8.60162C10.4333 9.91044 10.7369 11.1619 11.4794 12.0347C12.1604 12.8372 13.1349 13.1716 14.2942 13.1716C16.2841 13.1716 17.3875 11.8921 17.3875 11.8921L17.2879 12.5131C17.2503 12.7505 17.4332 12.9634 17.6714 12.9634H19.6844C20.0044 12.9634 20.2747 12.7314 20.3252 12.4155L21.533 4.76661C21.5712 4.53118 21.389 4.3176 21.1502 4.3176ZM18.0351 8.66713C17.8194 9.94388 16.8061 10.801 15.5137 10.801C14.8647 10.801 14.3461 10.5928 14.0131 10.1984C13.6828 9.80672 13.5573 9.24921 13.6623 8.62823C13.8636 7.36241 14.894 6.47735 16.1667 6.47735C16.8013 6.47735 17.3172 6.68821 17.657 7.08604C17.9975 7.48797 18.1327 8.04889 18.0351 8.66713Z" fill="#253B80"/>
<path d="M33.0524 4.31738H30.8066C30.5924 4.31738 30.391 4.42384 30.2696 4.60194L27.1722 9.16438L25.8593 4.78004C25.7768 4.50572 25.5236 4.31738 25.237 4.31738H23.0301C22.762 4.31738 22.5757 4.57942 22.661 4.8319L25.1346 12.0911L22.8091 15.3741C22.6262 15.6327 22.8104 15.9882 23.1264 15.9882H25.3694C25.5823 15.9882 25.7815 15.8845 25.9023 15.7098L33.3717 4.92812C33.5505 4.67018 33.3669 4.31738 33.0524 4.31738Z" fill="#253B80"/>
</svg>
